<svg xmlns="http://www.w3.org/2000/svg" viewBox="0 0 64 64" width="64" height="64" role="img" aria-label="ParentVeda">
  <defs>
    <linearGradient id="pv-bg" x1="0" y1="0" x2="1" y2="1">
      <stop offset="0" stop-color="#7C3CC6"/>
      <stop offset="1" stop-color="#5D2AA0"/>
    </linearGradient>
  </defs>
  <rect x="2" y="2" width="60" height="60" rx="17" fill="url(#pv-bg)"/>
  <!-- parent heart (cream) -->
  <path d="M32 51 C16 40 9.5 31.5 9.5 23.6 C9.5 17.2 14.3 12.8 20.1 12.8 C24.7 12.8 28.7 15.4 32 20.4 C35.3 15.4 39.3 12.8 43.9 12.8 C49.7 12.8 54.5 17.2 54.5 23.6 C54.5 31.5 48 40 32 51 Z" fill="#FFF1F4"/>
  <!-- child heart (coral), nestled inside -->
  <path d="M32 41.5 C24 36 20.7 31.7 20.7 27.6 C20.7 24.3 23.1 22 26.1 22 C28.4 22 30.5 23.4 32 26.1 C33.5 23.4 35.6 22 37.9 22 C40.9 22 43.3 24.3 43.3 27.6 C43.3 31.7 40 36 32 41.5 Z" fill="#FF5A79"/>
</svg>
